<svg xmlns="http://www.w3.org/2000/svg" xmlns:xlink="http://www.w3.org/1999/xlink" width="224.88" height="65.25" version="1.0">
  <defs>
    <path d="M28.547 0h-6.39v-13.031H10.202V0H3.797v-30.188h6.406v11.829h11.953v-11.828h6.39Zm0 0" id="a"/>
    <path d="M8.328-11.594c0 2.293.375 4.028 1.125 5.203.75 1.168 1.969 1.75 3.656 1.75 1.688 0 2.895-.582 3.625-1.75.739-1.164 1.11-2.898 1.11-5.203 0-2.281-.375-3.988-1.125-5.125-.742-1.144-1.953-1.718-3.64-1.718-1.688 0-2.903.57-3.642 1.703-.742 1.136-1.109 2.851-1.109 5.14Zm15.953 0c0 3.762-.992 6.703-2.968 8.828C19.331-.648 16.57.406 13.03.406c-2.219 0-4.18-.484-5.875-1.453-1.687-.969-2.984-2.36-3.89-4.172-.907-1.82-1.36-3.945-1.36-6.375 0-3.77.985-6.703 2.953-8.797 1.97-2.093 4.735-3.14 8.297-3.14 2.219 0 4.172.484 5.86 1.453 1.695.969 3 2.355 3.906 4.156.906 1.805 1.36 3.914 1.36 6.328Zm0 0" id="b"/>
    <path d="M24.625 0h-6.313v-13.484c0-1.664-.296-2.914-.89-3.75-.586-.832-1.527-1.25-2.828-1.25-1.762 0-3.031.59-3.813 1.765-.781 1.18-1.172 3.133-1.172 5.86V0H3.297v-23.094h4.812l.86 2.953h.344c.707-1.113 1.675-1.957 2.906-2.53 1.226-.571 2.629-.86 4.203-.86 2.687 0 4.723.73 6.11 2.187 1.394 1.45 2.093 3.543 2.093 6.282Zm0 0" id="c"/>
    <path d="M12.86-19.047c-1.337 0-2.383.43-3.141 1.281-.75.844-1.184 2.043-1.297 3.594h8.844c-.032-1.55-.438-2.75-1.22-3.594-.78-.851-1.843-1.28-3.187-1.28ZM13.75.406c-3.719 0-6.625-1.02-8.719-3.062-2.086-2.051-3.125-4.957-3.125-8.719 0-3.875.961-6.867 2.89-8.984 1.938-2.114 4.614-3.172 8.032-3.172 3.258 0 5.797.933 7.61 2.797 1.82 1.855 2.734 4.422 2.734 7.703v3.062H8.282c.07 1.781.6 3.18 1.593 4.188.988 1 2.379 1.5 4.172 1.5 1.383 0 2.695-.14 3.937-.422 1.239-.29 2.536-.754 3.891-1.39v4.874c-1.105.555-2.29.961-3.547 1.219-1.25.27-2.777.406-4.578.406Zm0 0" id="d"/>
    <path d="M0-23.094h6.89l4.36 13c.375 1.125.629 2.461.766 4h.125c.156-1.414.453-2.75.89-4l4.281-13h6.75L14.297 2.953c-.899 2.406-2.18 4.207-3.844 5.406-1.656 1.196-3.594 1.797-5.812 1.797a14.92 14.92 0 0 1-3.188-.344v-5c.75.176 1.57.266 2.469.266 1.113 0 2.086-.344 2.922-1.031.832-.68 1.484-1.703 1.953-3.078l.375-1.14Zm0 0" id="e"/>
    <path d="m22.281 0-1.765-8.078-2.407-10.203h-.14L13.75 0H6.984L.406-23.094h6.282l2.671 10.235c.426 1.824.86 4.351 1.297 7.578h.125c.051-1.051.29-2.711.719-4.985l.328-1.75 2.86-11.078h6.937l2.703 11.078c.05.305.133.75.25 1.344.125.586.238 1.215.344 1.89.113.669.21 1.325.297 1.97.093.636.144 1.148.156 1.53h.125c.125-1 .344-2.359.656-4.077.32-1.727.551-2.895.688-3.5l2.765-10.235h6.188L29.14 0Zm0 0" id="f"/>
    <path d="M9.61 0H3.296v-32.14h6.312Zm0 0" id="g"/>
  </defs>
  <use x="1.265" y="48.276" xmlns:xlink="http://www.w3.org/1999/xlink" xlink:href="#a" xlink:type="simple" xlink:actuate="onLoad" xlink:show="embed" fill="#FF1616"/>
  <use x="33.62" y="48.276" xmlns:xlink="http://www.w3.org/1999/xlink" xlink:href="#b" xlink:type="simple" xlink:actuate="onLoad" xlink:show="embed" fill="#FF1616"/>
  <use x="59.802" y="48.276" xmlns:xlink="http://www.w3.org/1999/xlink" xlink:href="#c" xlink:type="simple" xlink:actuate="onLoad" xlink:show="embed" fill="#FF1616"/>
  <use x="87.595" y="48.276" xmlns:xlink="http://www.w3.org/1999/xlink" xlink:href="#d" xlink:type="simple" xlink:actuate="onLoad" xlink:show="embed" fill="#FF1616"/>
  <use x="112.579" y="48.276" xmlns:xlink="http://www.w3.org/1999/xlink" xlink:href="#e" xlink:type="simple" xlink:actuate="onLoad" xlink:show="embed" fill="#FF1616"/>
  <use x="136.634" y="48.276" xmlns:xlink="http://www.w3.org/1999/xlink" xlink:href="#f" xlink:type="simple" xlink:actuate="onLoad" xlink:show="embed" fill="#FF1616"/>
  <use x="172.83" y="48.276" xmlns:xlink="http://www.w3.org/1999/xlink" xlink:href="#d" xlink:type="simple" xlink:actuate="onLoad" xlink:show="embed" fill="#FF1616"/>
  <use x="197.814" y="48.276" xmlns:xlink="http://www.w3.org/1999/xlink" xlink:href="#g" xlink:type="simple" xlink:actuate="onLoad" xlink:show="embed" fill="#FF1616"/>
  <use x="210.719" y="48.276" xmlns:xlink="http://www.w3.org/1999/xlink" xlink:href="#g" xlink:type="simple" xlink:actuate="onLoad" xlink:show="embed" fill="#FF1616"/>
</svg>
